<svg width="3407" height="1460" viewBox="0 0 3407 1460" fill="none" xmlns="http://www.w3.org/2000/svg">
<path d="M1945.26 555V782.79C1945.26 865.37 1882.16 910.84 1804.26 910.84C1750.91 910.84 1708.26 887.18 1684.57 852.38L1739.78 818.51C1752.3 838.46 1775.96 850.99 1804.26 850.99C1848.8 850.99 1874.78 827.33 1874.78 782.79V762.38C1858.54 786.04 1830.24 798.57 1796.84 798.57C1726.79 799.96 1673.9 743.82 1674.84 673.3C1674.84 602.3 1725.84 548.5 1796.84 548.5C1830.24 548.5 1858.54 561.03 1874.78 584.69V555H1945.26ZM1808.4 609.28C1768.96 609.28 1742.06 636.19 1742.06 673.28C1742.06 710.86 1768.96 737.77 1808.4 737.77C1847.4 737.77 1874.28 711.77 1874.28 673.28C1874.28 634.79 1847.37 609.28 1808.4 609.28Z" fill="white"/>
<path d="M2117.81 548.5C2194.36 548.5 2251.89 605.57 2251.89 680.26C2251.89 755.88 2194.36 812.48 2117.81 812.48C2040.33 812.48 1983.73 755.88 1983.73 680.26C1983.73 605.11 2040.33 548.5 2117.81 548.5ZM2165.59 630.62C2153.53 617.17 2137.76 610.62 2117.81 610.62C2097.86 610.62 2082.09 617.12 2069.56 630.62C2057.04 643.62 2051.01 660.31 2051.01 680.26C2051.01 700.21 2057.01 716.91 2069.56 730.37C2082.11 743.83 2097.86 750.37 2117.81 750.37C2137.76 750.37 2153.53 743.87 2165.59 730.37C2178.12 716.91 2184.15 700.21 2184.15 680.26C2184.15 660.31 2178.12 643.61 2165.59 630.67V630.62Z" fill="white"/>
<path d="M2538.57 555V806H2468.02V772.6C2453.63 797.18 2425.8 812.49 2392.39 812.49C2327.44 812.49 2288.01 769.81 2288.01 697.49V555H2358.53V692.33C2358.53 731.33 2376.62 751.24 2409.53 751.24C2442.93 751.24 2467.99 725.73 2467.99 684.9V555H2538.57Z" fill="white"/>
<path d="M2706.95 720.67L2774.68 555.05H2848.45L2741.74 806.05H2670.74L2564.04 555.05H2639.66L2706.95 720.67Z" fill="white"/>
<path d="M2915.7 703.92C2924.51 735.92 2950.95 752.64 2986.21 752.64C3011.73 752.64 3035.39 741.5 3046.99 723.41L3101.27 757.27C3079.46 790.68 3034.46 812.48 2986.21 812.48C2904.1 812.48 2847.5 755.88 2847.5 680.26C2847.5 605.11 2902.24 548.5 2977.86 548.5C3052.56 548.5 3108.23 599.5 3108.23 674.7C3108.32 684.459 3107.86 694.214 3106.84 703.92H2915.7ZM3040.02 656.6C3036.77 626.91 3012.18 606.5 2978.32 606.5C2948.63 606.5 2923.57 624.59 2915.69 656.6H3040.02Z" fill="white"/>
<path d="M3406.02 555V806H3335.51V772.6C3318.8 798.6 3290.97 812.49 3257.51 812.49C3186.51 812.49 3135.51 754.97 3135.51 680.27C3135.51 606.51 3186.51 548.51 3257.51 548.51C3290.92 548.51 3318.75 562.43 3335.51 588.41V555.01L3406.02 555ZM3316.5 629.67C3303.98 616.22 3288.2 609.67 3269.18 609.67C3249.23 609.67 3233.46 616.67 3220.93 630.09C3208.87 643.537 3202.84 660.237 3202.84 680.19C3202.84 721.02 3229.75 751.19 3269.18 751.19C3288.18 751.19 3303.98 744.7 3316.5 731.19C3329.02 717.68 3335.06 701.04 3335.06 680.19C3335.06 659.34 3329.02 642.67 3316.5 629.67Z" fill="white"/>
<path d="M729.66 0C327.32 0 0.0200195 327.33 0.0200195 729.67C0.118084 860.703 35.4432 989.299 102.296 1101.99C169.15 1214.69 265.072 1307.34 380.02 1370.24C477.083 1423.53 585.115 1453.75 695.74 1458.57C706.96 1459.06 718.38 1459.34 729.66 1459.34C735.66 1459.34 741.54 1459.27 747.32 1459.13C752.41 1459.02 757.42 1458.81 762.51 1458.61C779.43 1457.84 796.08 1456.55 811.96 1454.74C916.237 1442.99 1016.75 1408.85 1106.6 1354.66C1196.46 1300.46 1273.55 1227.49 1332.59 1140.74C1415.52 1019.36 1459.33 877.23 1459.33 729.69C1459.33 327.33 1132.02 0 729.66 0ZM421.81 726C335.5 936.23 355.67 1141.93 385.38 1272.36C371.48 1263.51 357.83 1254.07 344.59 1244.15C334.01 1236.21 323.677 1227.94 313.59 1219.35C271.31 637.99 459.28 619.94 459.28 619.94L483.39 893.67C539.5 906.14 615.15 757.18 615.15 757.18C634.72 976.89 440.51 1006.67 440.51 1006.67L421.81 726ZM481.02 290C482.34 317.9 656.21 414.73 656.21 414.73C621.28 413.16 588.21 423.73 560.88 437.05C527.27 453.53 487.74 430.96 486 393.52L481.02 290ZM758.61 1371.65C754.22 1371.86 749.83 1372.04 745.27 1372.11C732.42 1372.42 719.27 1372.35 706.4 1371.9C654.75 1315.9 596.9 1226.66 596.9 1226.66C540.75 1276.53 446.75 1268.66 446.75 1268.66C515.36 1224.98 590.21 1106.49 590.21 1106.49C590.21 1150.14 674.43 1221.33 674.43 1221.33C714.03 1156.79 679.2 989.68 677.59 982.02C677.59 981.95 677.49 982.02 677.46 982.02C657.05 1075.33 471.72 1081.53 471.72 1081.53C634.72 984.53 696.54 847.62 696.54 847.62C752.93 913.13 743 1133.98 743 1133.98C744.74 1259.47 764.28 1331.18 781.45 1370.22C774.02 1370.8 766.34 1371.25 758.61 1371.6V1371.65ZM973.68 1324.39C963.887 1328.39 954.017 1332.15 944.07 1335.67C804.76 1238.08 784.17 1122.59 783.58 1119C845.92 1181.31 883.33 1187.55 883.33 1187.55C808.52 1044.09 833.45 994.21 833.45 994.21C877.09 1050.32 1014.32 1044.09 1014.32 1044.09C1033.02 1044.09 1033.02 1118.93 1033.02 1118.93C1201.42 981.71 1192.02 922.46 1192.02 922.46C1154.13 943.57 1100.18 945.28 1073.02 947.85C1005.55 954.23 908.59 860.78 967.73 855.85C1010.29 852.29 1035.12 839.55 1049.96 826.9C1071.1 808.9 1100.32 803.46 1125.82 814.36C1148.47 824.224 1170.57 835.31 1192.02 847.57L1207.63 894.34C1251.3 881.87 1307.41 794.59 1307.41 794.56C1307.95 791.878 1308.22 789.147 1308.21 786.41C1308.21 730.16 1196.13 676.14 1183.77 670.41C1183.07 670.06 1182.27 669.95 1181.57 669.57C1147.06 651.25 1120.07 622.13 1101.4 595.91C1068.24 549.24 1025.19 510.51 976.71 480.07L802.25 370.53L654.57 208.32L637.57 311.2L421.81 208.32C421.81 208.32 410.11 409.7 396.87 414.12C293.95 448.43 250.31 585.67 250.31 585.67C343.86 517.09 353.2 526.42 353.2 526.42C353.2 582.57 151.09 847.62 151.09 847.62H215.69C198.31 937.82 192.43 1016.5 193.69 1084.17C124.214 978.988 87.1414 855.726 87.07 729.67C87.07 375.35 375.35 87.0801 729.66 87.0801C1083.97 87.0801 1372.26 375.35 1372.26 729.67C1372.26 991.41 1215.81 1224.83 973.68 1324.34V1324.39ZM829.1 670.44L845.71 637.88L862.4 605.21L865.88 598.35C869.57 591.14 878.17 588.77 884.65 593.23C884.7 593.225 884.75 593.235 884.794 593.258C884.839 593.281 884.875 593.317 884.9 593.36C906.9 608.31 953.61 640.45 986.11 666.09C1004.88 680.89 1018.85 693.53 1020.69 699.45C1019.69 698.97 1006.21 691.86 986.11 683.71C970.598 677.329 954.68 671.984 938.46 667.71C901.86 658.1 860.1 653.92 829.1 670.39V670.44Z" fill="white"/>
</svg>
