<svg width="1460" height="1460" viewBox="0 0 1460 1460" fill="none" xmlns="http://www.w3.org/2000/svg">
<path d="M729.64 0C327.3 0 0 327.33 0 729.67C0.0980644 860.703 35.4231 989.299 102.276 1101.99C169.13 1214.69 265.052 1307.34 380 1370.24C477.063 1423.53 585.094 1453.75 695.72 1458.57C706.94 1459.06 718.36 1459.34 729.64 1459.34C735.64 1459.34 741.52 1459.27 747.3 1459.13C752.39 1459.02 757.4 1458.81 762.49 1458.61C779.41 1457.84 796.06 1456.55 811.94 1454.74C916.217 1442.99 1016.73 1408.85 1106.58 1354.66C1196.44 1300.46 1273.53 1227.49 1332.57 1140.74C1415.5 1019.36 1459.31 877.23 1459.31 729.69C1459.31 327.33 1132 0 729.64 0ZM421.79 726C335.48 936.23 355.65 1141.93 385.36 1272.36C371.46 1263.51 357.81 1254.07 344.57 1244.15C333.99 1236.21 323.657 1227.94 313.57 1219.35C271.29 637.99 459.26 619.94 459.26 619.94L483.37 893.67C539.48 906.14 615.13 757.18 615.13 757.18C634.7 976.89 440.49 1006.67 440.49 1006.67L421.79 726ZM481 290C482.32 317.9 656.19 414.73 656.19 414.73C621.26 413.16 588.19 423.73 560.86 437.05C527.25 453.53 487.72 430.96 485.98 393.52L481 290ZM758.59 1371.65C754.2 1371.86 749.81 1372.04 745.25 1372.11C732.4 1372.42 719.25 1372.35 706.38 1371.9C654.73 1315.9 596.88 1226.66 596.88 1226.66C540.73 1276.53 446.73 1268.66 446.73 1268.66C515.34 1224.98 590.19 1106.49 590.19 1106.49C590.19 1150.14 674.41 1221.33 674.41 1221.33C714.01 1156.79 679.18 989.68 677.57 982.02C677.57 981.95 677.47 982.02 677.44 982.02C657.03 1075.33 471.7 1081.53 471.7 1081.53C634.7 984.53 696.52 847.62 696.52 847.62C752.91 913.13 742.98 1133.98 742.98 1133.98C744.72 1259.47 764.26 1331.18 781.43 1370.22C774 1370.8 766.32 1371.25 758.59 1371.6V1371.65ZM973.66 1324.39C963.867 1328.39 953.997 1332.15 944.05 1335.67C804.74 1238.08 784.15 1122.59 783.56 1119C845.9 1181.31 883.31 1187.55 883.31 1187.55C808.5 1044.09 833.43 994.21 833.43 994.21C877.07 1050.32 1014.3 1044.09 1014.3 1044.09C1033 1044.09 1033 1118.93 1033 1118.93C1201.4 981.71 1192 922.46 1192 922.46C1154.11 943.57 1100.16 945.28 1073 947.85C1005.53 954.23 908.57 860.78 967.71 855.85C1010.27 852.29 1035.1 839.55 1049.94 826.9C1071.08 808.9 1100.3 803.46 1125.8 814.36C1148.45 824.224 1170.55 835.31 1192 847.57L1207.61 894.34C1251.28 881.87 1307.39 794.59 1307.39 794.56C1307.93 791.878 1308.2 789.147 1308.19 786.41C1308.19 730.16 1196.11 676.14 1183.75 670.41C1183.05 670.06 1182.25 669.95 1181.55 669.57C1147.04 651.25 1120.05 622.13 1101.38 595.91C1068.22 549.24 1025.17 510.51 976.69 480.07L802.23 370.53L654.55 208.32L637.55 311.2L421.79 208.32C421.79 208.32 410.09 409.7 396.85 414.12C293.93 448.43 250.29 585.67 250.29 585.67C343.84 517.09 353.18 526.42 353.18 526.42C353.18 582.57 151.07 847.62 151.07 847.62H215.67C198.29 937.82 192.41 1016.5 193.67 1084.17C124.194 978.988 87.1214 855.726 87.05 729.67C87.05 375.35 375.33 87.0801 729.64 87.0801C1083.95 87.0801 1372.24 375.35 1372.24 729.67C1372.24 991.41 1215.79 1224.83 973.66 1324.34V1324.39ZM829.08 670.44L845.69 637.88L862.38 605.21L865.86 598.35C869.55 591.14 878.15 588.77 884.63 593.23C884.68 593.225 884.73 593.235 884.774 593.258C884.818 593.281 884.855 593.317 884.88 593.36C906.88 608.31 953.59 640.45 986.09 666.09C1004.86 680.89 1018.83 693.53 1020.67 699.45C1019.67 698.97 1006.19 691.86 986.09 683.71C970.578 677.329 954.66 671.984 938.44 667.71C901.84 658.1 860.08 653.92 829.08 670.39V670.44Z" fill="white"/>
</svg>
