<svg width="64" height="45" viewBox="0 0 64 45" fill="none" xmlns="http://www.w3.org/2000/svg">
<path d="M19.8652 1.00797V16.7613C19.8652 22.4724 15.2309 25.6167 9.50692 25.6167C5.58885 25.6167 2.45626 23.9802 0.716476 21.5737L4.77122 19.2319C5.6909 20.6116 7.43068 21.4776 9.50692 21.4776C12.7781 21.4776 14.6861 19.8417 14.6861 16.7602V15.3484C13.4936 16.9844 11.4149 17.8528 8.96204 17.8528C3.81691 17.9489 -0.0677553 14.0672 0.00089589 9.19013C0.00089589 4.28107 3.74888 0.558945 8.96204 0.558945C11.4149 0.558945 13.4936 1.42556 14.6861 3.06327V1.00972L19.8652 1.00797ZM9.81368 4.75922C6.91735 4.75922 4.94131 6.6229 4.94131 9.18547C4.94131 11.7841 6.92044 13.6449 9.81368 13.6449C12.676 13.6449 14.652 11.8482 14.652 9.18547C14.652 6.52273 12.676 4.75922 9.81368 4.75922Z" fill="black"/>
<path d="M32.5372 0.558334C38.1592 0.558334 42.384 4.50526 42.384 9.67058C42.384 14.9005 38.1592 18.8143 32.5372 18.8143C26.8472 18.8143 22.6904 14.9 22.6904 9.67058C22.6904 4.47323 26.8472 0.558334 32.5372 0.558334ZM36.0465 6.23733C35.1608 5.30549 34.0024 4.8582 32.5372 4.8582C31.0721 4.8582 29.9136 5.30723 28.994 6.23733C28.0737 7.13597 27.6333 8.29087 27.6333 9.67058C27.6333 11.0503 28.0761 12.2052 28.994 13.1359C29.9118 14.0665 31.0721 14.5156 32.5372 14.5156C34.0024 14.5156 35.1608 14.0665 36.0465 13.1359C36.9668 12.204 37.4071 11.0503 37.4071 9.67058C37.4071 8.29087 36.9668 7.13597 36.0465 6.23733Z" fill="black"/>
<path d="M63.439 1.00793V18.3635H58.2598V16.0578C57.2035 17.7584 55.1594 18.8172 52.7059 18.8172C47.9355 18.8172 45.0398 15.865 45.0398 10.8598V1.00793H50.219V10.5052C50.219 13.1999 51.5475 14.582 53.9663 14.582C56.4198 14.582 58.2598 12.8173 58.2598 9.99381V1.00793H63.439Z" fill="black"/>
<path d="M10.4937 37.8864L15.4682 26.4324H20.886L13.0493 43.7879H7.83614L0 26.4324H5.55333L10.4937 37.8864Z" fill="black"/>
<path d="M25.8227 36.7316C26.4702 38.9447 28.4123 40.1002 31.0018 40.1002C32.8758 40.1002 34.6131 39.3302 35.4648 38.0787L39.4515 40.4211C37.8502 42.7309 34.5451 44.2393 31.0018 44.2393C24.971 44.2393 20.8142 40.325 20.8142 35.0956C20.8142 29.8982 24.8344 25.9833 30.3883 25.9833C35.8742 25.9833 39.9624 29.5127 39.9624 34.7106C39.9691 35.3857 39.935 36.0607 39.8603 36.7321L25.8227 36.7316ZM34.9539 33.459C34.7152 31.4055 32.9098 29.9938 30.4223 29.9938C28.2416 29.9938 26.4022 31.2448 25.8227 33.459H34.9539Z" fill="black"/>
<path d="M61.8362 26.4324V43.7879H56.6576V41.4822C55.4306 43.2789 53.3865 44.2416 50.933 44.2416C45.7205 44.2416 41.9725 40.2632 41.9725 35.0979C41.9725 29.9967 45.7205 25.9857 50.933 25.9857C53.3865 25.9857 55.4306 26.9484 56.6576 28.7451V26.4353L61.8362 26.4324ZM55.2623 31.5977C54.3427 30.6658 53.1836 30.218 51.7871 30.218C50.3219 30.218 49.1635 30.6996 48.2432 31.6297C47.3576 32.5615 46.9147 33.7166 46.9147 35.095C46.9147 37.9185 48.8939 40.004 51.7871 40.004C53.1836 40.004 54.3427 39.555 55.2623 38.6243C56.182 37.6937 56.623 36.5388 56.623 35.095C56.623 33.6512 56.1802 32.4963 55.2623 31.5977Z" fill="black"/>
</svg>
