<svg width="638" height="613" viewBox="0 0 638 613" fill="none" xmlns="http://www.w3.org/2000/svg">
<mask id="mask0_614_258" style="mask-type:alpha" maskUnits="userSpaceOnUse" x="0" y="0" width="638" height="613">
<rect width="638" height="613" fill="black"/>
</mask>
<g mask="url(#mask0_614_258)">
<rect width="638" height="613" fill="black"/>
<path d="M156 153L311.885 306H0.115433L156 153Z" fill="#2B67FE"/>
<path d="M156 153L0 0L312 0L156 153Z" fill="white"/>
<rect x="312" width="155" height="307" fill="#2B67FE"/>
<path d="M466.5 307C511.985 307 555.606 290.828 587.769 262.041C619.931 233.254 638 194.211 638 153.5C638 112.789 619.931 73.746 587.769 44.9591C555.606 16.1723 511.985 6.14715e-06 466.5 0L466.5 153.5V307Z" fill="white"/>
<rect y="307" width="312" height="306" fill="white"/>
<rect x="312" y="307" width="326" height="306" fill="#2B67FE"/>
<path d="M311.5 307C233.924 307 159.526 337.185 104.671 390.914C49.8169 444.643 19 517.515 19 593.5C19 669.484 49.8169 742.357 104.671 796.086C159.526 849.815 233.924 880 311.5 880V750.343C269.031 750.343 228.302 733.819 198.273 704.405C168.243 674.991 151.372 635.097 151.372 593.5C151.372 551.903 168.243 512.009 198.273 482.595C228.302 453.181 269.031 436.657 311.5 436.657V307Z" fill="black"/>
<path d="M311.5 880C389.076 880 463.474 849.815 518.329 796.086C573.183 742.357 604 669.485 604 593.5C604 517.516 573.183 444.643 518.329 390.914C463.474 337.185 389.076 307 311.5 307L311.5 436.657C353.969 436.657 394.698 453.181 424.727 482.595C454.757 512.009 471.628 551.903 471.628 593.5C471.628 635.097 454.757 674.991 424.727 704.405C394.698 733.819 353.969 750.343 311.5 750.343L311.5 880Z" fill="white"/>
</g>
</svg>
