<svg width="2057" height="431" viewBox="0 0 2057 431" fill="none" xmlns="http://www.w3.org/2000/svg">
<path d="M322.17 7.91992V278.41C322.17 376.47 247.24 430.46 154.69 430.46C91.3401 430.46 40.6901 402.36 12.5601 361.04L78.1201 320.83C92.9901 344.52 121.12 359.39 154.69 359.39C207.58 359.39 238.43 331.3 238.43 278.39V254.15C219.15 282.24 185.54 297.15 145.88 297.15C62.6901 298.8 -0.119929 232.15 0.990071 148.41C0.990071 64.1199 61.5901 0.209961 145.88 0.209961C185.54 0.209961 219.15 15.09 238.43 43.21V7.94995L322.17 7.91992ZM159.65 72.33C112.82 72.33 80.8701 104.33 80.8701 148.33C80.8701 192.95 112.87 224.9 159.65 224.9C205.93 224.9 237.88 194.05 237.88 148.33C237.88 102.61 205.93 72.33 159.65 72.33Z" fill="black"/>
<path d="M527.06 0.199951C617.96 0.199951 686.27 67.9699 686.27 156.66C686.27 246.46 617.96 313.66 527.06 313.66C435.06 313.66 367.85 246.45 367.85 156.66C367.85 67.4199 435.06 0.199951 527.06 0.199951ZM583.8 97.71C569.48 81.71 550.75 74.0299 527.06 74.0299C503.37 74.0299 484.64 81.74 469.77 97.71C454.89 113.14 447.77 132.97 447.77 156.66C447.77 180.35 454.93 200.18 469.77 216.16C484.61 232.14 503.37 239.85 527.06 239.85C550.75 239.85 569.48 232.14 583.8 216.16C598.68 200.16 605.8 180.35 605.8 156.66C605.8 132.97 598.68 113.14 583.8 97.71Z" fill="black"/>
<path d="M1026.7 7.91992V305.92H942.96V266.33C925.88 295.53 892.83 313.71 853.16 313.71C776.03 313.71 729.21 263.02 729.21 177.08V7.91992H812.95V170.99C812.95 217.26 834.43 240.99 873.54 240.99C913.21 240.99 942.96 210.69 942.96 162.21V7.91992H1026.7Z" fill="black"/>
<path d="M1226.63 204.59L1307.06 7.91992H1394.66L1267.95 305.92H1183.66L1056.96 7.91992H1146.75L1226.63 204.59Z" fill="black"/>
<path d="M1474.48 184.76C1484.95 222.76 1516.35 242.6 1558.22 242.6C1588.52 242.6 1616.61 229.38 1630.38 207.89L1694.84 248.11C1668.95 287.77 1615.51 313.67 1558.22 313.67C1460.71 313.67 1393.5 246.46 1393.5 156.67C1393.5 67.4299 1458.5 0.209961 1548.3 0.209961C1637 0.209961 1703.1 60.8099 1703.1 150.06C1703.21 161.652 1702.66 173.241 1701.45 184.77L1474.48 184.76ZM1622.12 128.57C1618.26 93.31 1589.07 69.0699 1548.85 69.0699C1513.59 69.0699 1483.85 90.5499 1474.48 128.57H1622.12Z" fill="black"/>
<path d="M2056.77 7.91992V305.92H1973.04V266.33C1953.2 297.18 1920.15 313.71 1880.48 313.71C1796.2 313.71 1735.6 245.4 1735.6 156.71C1735.6 69.12 1796.2 0.25 1880.48 0.25C1920.15 0.25 1953.2 16.78 1973.04 47.63V7.96997L2056.77 7.91992ZM1950.48 96.61C1935.61 80.61 1916.87 72.9199 1894.29 72.9199C1870.6 72.9199 1851.87 81.1899 1836.99 97.1599C1822.67 113.16 1815.51 132.993 1815.51 156.66C1815.51 205.14 1847.51 240.95 1894.29 240.95C1916.87 240.95 1935.61 233.24 1950.48 217.26C1965.35 201.28 1972.48 181.45 1972.48 156.66C1972.48 131.87 1965.32 112.04 1950.48 96.61Z" fill="black"/>
</svg>
