<svg width="2056" height="431" viewBox="0 0 2056 431" fill="none" xmlns="http://www.w3.org/2000/svg">
<path d="M321.194 7.71997V278.21C321.194 376.27 246.264 430.26 153.714 430.26C90.3645 430.26 39.7145 402.16 11.5845 360.84L77.1445 320.63C92.0145 344.32 120.144 359.19 153.714 359.19C206.604 359.19 237.454 331.1 237.454 278.19V253.95C218.174 282.04 184.564 296.95 144.904 296.95C61.7145 298.6 -1.09551 231.95 0.0144854 148.21C0.0144854 63.92 60.6145 0.0100098 144.904 0.0100098C184.564 0.0100098 218.174 14.89 237.454 43.01V7.75L321.194 7.71997ZM158.674 72.13C111.844 72.13 79.8945 104.13 79.8945 148.13C79.8945 192.75 111.894 224.7 158.674 224.7C204.954 224.7 236.904 193.85 236.904 148.13C236.904 102.41 204.954 72.13 158.674 72.13Z" fill="white"/>
<path d="M526.085 0C616.985 0 685.294 67.77 685.294 156.46C685.294 246.26 616.985 313.46 526.085 313.46C434.085 313.46 366.875 246.25 366.875 156.46C366.875 67.22 434.085 0 526.085 0ZM582.825 97.51C568.505 81.51 549.775 73.83 526.085 73.83C502.395 73.83 483.664 81.54 468.794 97.51C453.914 112.94 446.794 132.77 446.794 156.46C446.794 180.15 453.954 199.98 468.794 215.96C483.634 231.94 502.395 239.65 526.085 239.65C549.775 239.65 568.505 231.94 582.825 215.96C597.705 199.96 604.825 180.15 604.825 156.46C604.825 132.77 597.705 112.94 582.825 97.51Z" fill="white"/>
<path d="M1025.72 7.71997V305.72H941.985V266.13C924.905 295.33 891.855 313.51 852.185 313.51C775.055 313.51 728.235 262.82 728.235 176.88V7.71997H811.975V170.79C811.975 217.06 833.455 240.79 872.565 240.79C912.235 240.79 941.985 210.49 941.985 162.01V7.71997H1025.72Z" fill="white"/>
<path d="M1225.65 204.39L1306.08 7.71997H1393.68L1266.97 305.72H1182.68L1055.98 7.71997H1145.77L1225.65 204.39Z" fill="white"/>
<path d="M1473.5 184.56C1483.97 222.56 1515.37 242.4 1557.24 242.4C1587.54 242.4 1615.63 229.18 1629.4 207.69L1693.86 247.91C1667.97 287.57 1614.53 313.47 1557.24 313.47C1459.73 313.47 1392.52 246.26 1392.52 156.47C1392.52 67.23 1457.52 0.0100098 1547.32 0.0100098C1636.02 0.0100098 1702.12 60.61 1702.12 149.86C1702.23 161.452 1701.68 173.041 1700.47 184.57L1473.5 184.56ZM1621.14 128.37C1617.28 93.11 1588.09 68.87 1547.87 68.87C1512.61 68.87 1482.87 90.35 1473.5 128.37H1621.14Z" fill="white"/>
<path d="M2055.79 7.71997V305.72H1972.06V266.13C1952.22 296.98 1919.17 313.51 1879.5 313.51C1795.22 313.51 1734.62 245.2 1734.62 156.51C1734.62 68.92 1795.22 0.0500488 1879.5 0.0500488C1919.17 0.0500488 1952.22 16.5801 1972.06 47.4301V7.77002L2055.79 7.71997ZM1949.5 96.41C1934.63 80.41 1915.89 72.72 1893.31 72.72C1869.62 72.72 1850.89 80.99 1836.01 96.96C1821.69 112.96 1814.53 132.793 1814.53 156.46C1814.53 204.94 1846.53 240.75 1893.31 240.75C1915.89 240.75 1934.63 233.04 1949.5 217.06C1964.37 201.08 1971.5 181.25 1971.5 156.46C1971.5 131.67 1964.34 111.84 1949.5 96.41Z" fill="white"/>
</svg>
