<svg width="184" height="192" viewBox="0 0 184 192" fill="none" xmlns="http://www.w3.org/2000/svg">
<path d="M36.5651 159.05C36.9353 158.685 37.3587 158.391 37.8354 158.168C38.3235 157.945 38.8335 157.812 39.3655 157.771C39.9033 157.724 40.4345 157.795 40.9593 157.985C41.4898 158.17 41.9798 158.49 42.4293 158.946C42.963 159.487 43.2928 160.072 43.4186 160.7C43.5557 161.329 43.5206 161.926 43.3131 162.49L42.5591 162.307C42.6976 161.912 42.7454 161.539 42.7025 161.188C42.6653 160.831 42.5686 160.505 42.4122 160.21C42.2614 159.92 42.0765 159.665 41.8574 159.442C41.4978 159.078 41.1063 158.829 40.683 158.696C40.2653 158.558 39.8385 158.512 39.4026 158.56C38.978 158.608 38.567 158.733 38.1696 158.934C37.778 159.129 37.4284 159.378 37.1208 159.682C36.7848 160.013 36.5192 160.388 36.324 160.805C36.1289 161.222 36.0128 161.651 35.9758 162.092C35.9446 162.528 35.9926 162.952 36.1199 163.366C36.2585 163.78 36.4879 164.149 36.8082 164.474C37.0329 164.702 37.3031 164.896 37.6188 165.056C37.9345 165.217 38.2761 165.318 38.6435 165.36C39.0165 165.408 39.3958 165.366 39.7814 165.232L40.0139 165.981C39.5885 166.153 39.1412 166.212 38.672 166.158C38.2028 166.104 37.754 165.968 37.3256 165.75C36.9028 165.538 36.5397 165.278 36.2363 164.971C35.8261 164.555 35.538 164.086 35.3718 163.565C35.2114 163.037 35.1528 162.5 35.1961 161.951C35.2508 161.403 35.3958 160.878 35.6311 160.376C35.8722 159.868 36.1835 159.426 36.5651 159.05Z" fill="black"/>
<path d="M47.1151 174.145C46.6213 173.804 46.2416 173.396 45.9762 172.922C45.7108 172.447 45.5491 171.942 45.491 171.406C45.4375 170.864 45.4771 170.328 45.6098 169.797C45.7471 169.26 45.9701 168.768 46.2791 168.32C46.6016 167.852 46.9905 167.465 47.4459 167.157C47.9058 166.842 48.3975 166.623 48.921 166.498C49.4556 166.371 49.9896 166.351 50.523 166.437C51.061 166.516 51.5637 166.717 52.0313 167.04C52.5252 167.381 52.9025 167.792 53.1634 168.273C53.4242 168.754 53.5781 169.264 53.6251 169.801C53.6786 170.344 53.639 170.88 53.5063 171.41C53.3736 171.941 53.1551 172.427 52.8507 172.868C52.5281 173.336 52.1369 173.727 51.677 174.041C51.2216 174.349 50.73 174.568 50.2019 174.7C49.6785 174.825 49.15 174.844 48.6166 174.758C48.0832 174.672 47.5827 174.467 47.1151 174.145ZM46.9705 168.797C46.707 169.179 46.5152 169.591 46.395 170.033C46.2793 170.468 46.2413 170.903 46.281 171.339C46.3252 171.768 46.4486 172.174 46.6511 172.556C46.8647 172.937 47.1625 173.259 47.5444 173.523C47.9461 173.8 48.3618 173.965 48.7915 174.018C49.2322 174.07 49.66 174.034 50.0747 173.912C50.5005 173.788 50.893 173.592 51.2523 173.325C51.6116 173.058 51.9162 172.743 52.1661 172.381C52.4296 171.999 52.6191 171.591 52.7348 171.155C52.8504 170.72 52.8851 170.282 52.8389 169.842C52.7992 169.407 52.6758 169.001 52.4688 168.625C52.2617 168.248 51.9672 167.929 51.5853 167.665C51.1902 167.393 50.7745 167.227 50.3383 167.169C49.9086 167.116 49.4809 167.151 49.0551 167.275C48.6404 167.398 48.2501 167.59 47.8842 167.853C47.5249 168.12 47.2203 168.435 46.9705 168.797Z" fill="black"/>
<path d="M60.7974 174.131L58.0241 180.528L57.2534 180.194L60.6424 172.377L61.281 172.654L63.5858 181.396L66.4068 174.889L67.1775 175.223L63.7932 183.029L63.0776 182.719L60.7974 174.131Z" fill="black"/>
<path d="M79.1348 179.326L76.1769 178.642L74.4248 186.218L73.6064 186.029L75.3585 178.452L72.4005 177.768L72.5682 177.044L79.3024 178.601L79.1348 179.326Z" fill="black"/>
<path d="M87.5579 179.556L88.2649 179.592L91.3577 188.285L90.4709 188.239L89.5068 185.521L85.6839 185.322L84.4551 187.926L83.5563 187.879L87.5579 179.556ZM89.3493 184.852L87.8543 180.556L85.8979 184.672L89.3493 184.852Z" fill="black"/>
<path d="M97.5724 183.786C97.505 183.27 97.5265 182.755 97.6368 182.241C97.754 181.717 97.9567 181.231 98.2449 180.782C98.5322 180.325 98.9101 179.944 99.3788 179.641C99.8464 179.33 100.398 179.133 101.032 179.05C101.786 178.952 102.451 179.042 103.028 179.322C103.612 179.593 104.066 179.981 104.391 180.487L103.789 180.977C103.558 180.628 103.289 180.365 102.984 180.187C102.677 180.001 102.359 179.881 102.029 179.828C101.707 179.773 101.392 179.766 101.082 179.806C100.575 179.872 100.14 180.034 99.7783 180.291C99.4155 180.54 99.1215 180.853 98.8964 181.229C98.6781 181.596 98.529 181.999 98.4491 182.437C98.3681 182.867 98.3556 183.296 98.4115 183.725C98.4726 184.193 98.6105 184.631 98.8251 185.038C99.0397 185.446 99.3115 185.798 99.6406 186.094C99.9687 186.382 100.336 186.6 100.743 186.748C101.156 186.888 101.589 186.928 102.041 186.869C102.359 186.828 102.677 186.73 102.995 186.575C103.314 186.421 103.601 186.21 103.857 185.942C104.12 185.674 104.315 185.346 104.442 184.958L105.179 185.225C105.059 185.668 104.836 186.06 104.51 186.402C104.183 186.743 103.803 187.018 103.371 187.228C102.946 187.437 102.52 187.569 102.092 187.625C101.513 187.701 100.965 187.647 100.449 187.464C99.9319 187.274 99.468 186.996 99.0571 186.63C98.6532 186.255 98.3224 185.822 98.0646 185.331C97.8059 184.833 97.6418 184.318 97.5724 183.786Z" fill="black"/>
<path d="M116.1 176.244L113.204 177.156L115.541 184.573L114.74 184.825L112.403 177.409L109.507 178.321L109.284 177.611L115.876 175.534L116.1 176.244Z" fill="black"/>
<path d="M139.343 172.304L135.368 166.62L135.929 172.803L135.496 173.106L129.871 170.465L133.847 176.149L133.158 176.63L128.275 169.649L128.983 169.153L135.049 172.027L134.45 165.329L135.148 164.841L140.032 171.822L139.343 172.304Z" fill="black"/>
<path d="M149.408 162.047L149.941 162.566L145.948 166.667L139.844 160.723L143.762 156.699L144.295 157.218L140.963 160.64L143.164 162.783L146.069 159.8L146.576 160.294L143.671 163.277L146.001 165.546L149.408 162.047Z" fill="black"/>
<path d="M151.05 149.368C150.685 148.998 150.391 148.575 150.168 148.098C149.945 147.61 149.812 147.1 149.771 146.568C149.724 146.03 149.795 145.499 149.985 144.974C150.17 144.444 150.49 143.954 150.946 143.504C151.487 142.97 152.072 142.641 152.7 142.515C153.329 142.378 153.926 142.413 154.49 142.62L154.307 143.374C153.912 143.236 153.539 143.188 153.188 143.231C152.831 143.268 152.505 143.365 152.21 143.521C151.92 143.672 151.665 143.857 151.442 144.076C151.078 144.436 150.829 144.827 150.696 145.25C150.558 145.668 150.512 146.095 150.56 146.531C150.608 146.955 150.733 147.366 150.934 147.764C151.129 148.155 151.378 148.505 151.682 148.813C152.013 149.149 152.388 149.414 152.805 149.609C153.222 149.805 153.651 149.921 154.092 149.958C154.528 149.989 154.952 149.941 155.366 149.813C155.78 149.675 156.149 149.445 156.474 149.125C156.702 148.9 156.896 148.63 157.056 148.315C157.217 147.999 157.318 147.657 157.36 147.29C157.408 146.917 157.366 146.538 157.232 146.152L157.981 145.919C158.153 146.345 158.212 146.792 158.158 147.261C158.104 147.731 157.968 148.179 157.75 148.608C157.538 149.031 157.278 149.394 156.971 149.697C156.555 150.107 156.086 150.395 155.565 150.562C155.037 150.722 154.5 150.781 153.951 150.737C153.403 150.683 152.878 150.538 152.376 150.302C151.868 150.061 151.426 149.75 151.05 149.368Z" fill="black"/>
<path d="M166.145 138.818C165.804 139.312 165.396 139.692 164.922 139.957C164.447 140.223 163.942 140.384 163.406 140.442C162.864 140.496 162.328 140.456 161.797 140.324C161.26 140.186 160.768 139.963 160.32 139.654C159.852 139.332 159.465 138.943 159.157 138.487C158.842 138.028 158.623 137.536 158.498 137.012C158.371 136.478 158.351 135.944 158.437 135.41C158.516 134.872 158.717 134.37 159.04 133.902C159.381 133.408 159.792 133.031 160.273 132.77C160.754 132.509 161.264 132.355 161.801 132.308C162.344 132.255 162.88 132.294 163.41 132.427C163.941 132.56 164.427 132.778 164.868 133.083C165.336 133.405 165.727 133.796 166.041 134.256C166.349 134.712 166.568 135.203 166.7 135.731C166.825 136.255 166.844 136.783 166.758 137.317C166.672 137.85 166.467 138.351 166.145 138.818ZM160.797 138.963C161.179 139.226 161.591 139.418 162.033 139.538C162.468 139.654 162.903 139.692 163.339 139.652C163.768 139.608 164.174 139.485 164.556 139.282C164.937 139.069 165.259 138.771 165.523 138.389C165.8 137.987 165.965 137.572 166.018 137.142C166.07 136.701 166.034 136.273 165.912 135.859C165.788 135.433 165.592 135.04 165.325 134.681C165.058 134.322 164.743 134.017 164.381 133.767C163.999 133.504 163.591 133.314 163.155 133.199C162.72 133.083 162.282 133.048 161.842 133.094C161.406 133.134 161.001 133.258 160.625 133.465C160.248 133.672 159.929 133.966 159.665 134.348C159.393 134.743 159.227 135.159 159.169 135.595C159.116 136.025 159.151 136.452 159.275 136.878C159.398 137.293 159.59 137.683 159.853 138.049C160.12 138.408 160.435 138.713 160.797 138.963Z" fill="black"/>
<path d="M166.131 125.136L172.528 127.909L172.194 128.68L164.377 125.291L164.654 124.652L173.396 122.348L166.889 119.527L167.223 118.756L175.029 122.14L174.719 122.856L166.131 125.136Z" fill="black"/>
<path d="M171.326 106.799L170.642 109.756L178.218 111.509L178.028 112.327L170.452 110.575L169.768 113.533L169.043 113.365L170.601 106.631L171.326 106.799Z" fill="black"/>
<path d="M171.556 98.3755L171.592 97.6685L180.285 94.5756L180.239 95.4624L177.521 96.4266L177.322 100.249L179.926 101.478L179.879 102.377L171.556 98.3755ZM176.852 96.5841L172.556 98.0791L176.672 100.035L176.852 96.5841Z" fill="black"/>
<path d="M175.786 88.361C175.27 88.4283 174.755 88.4069 174.241 88.2966C173.717 88.1794 173.231 87.9767 172.782 87.6884C172.325 87.4012 171.944 87.0232 171.641 86.5546C171.33 86.0869 171.133 85.5358 171.05 84.9012C170.952 84.1476 171.042 83.4823 171.322 82.9052C171.593 82.3212 171.981 81.8671 172.487 81.5428L172.977 82.1444C172.628 82.3755 172.365 82.6439 172.187 82.9495C172.001 83.2562 171.881 83.5744 171.827 83.9041C171.773 84.2259 171.766 84.5415 171.806 84.8509C171.872 85.3586 172.034 85.7933 172.291 86.1551C172.54 86.5179 172.853 86.8118 173.229 87.037C173.596 87.2553 173.999 87.4044 174.437 87.4843C174.867 87.5653 175.296 87.5778 175.725 87.5219C176.193 87.4607 176.631 87.3229 177.038 87.1083C177.446 86.8937 177.798 86.6218 178.094 86.2927C178.382 85.9647 178.6 85.5973 178.748 85.1907C178.888 84.7771 178.928 84.3442 178.869 83.8921C178.828 83.5748 178.73 83.2568 178.575 82.9381C178.421 82.6194 178.21 82.3323 177.942 82.0768C177.674 81.8134 177.346 81.6182 176.958 81.4913L177.225 80.7546C177.668 80.8742 178.06 81.0973 178.402 81.4238C178.743 81.7504 179.018 82.1299 179.228 82.5624C179.437 82.9869 179.569 83.4134 179.625 83.8418C179.701 84.4208 179.647 84.9684 179.464 85.4844C179.274 86.0014 178.996 86.4654 178.63 86.8762C178.255 87.2802 177.822 87.611 177.331 87.8687C176.833 88.1275 176.318 88.2916 175.786 88.361Z" fill="black"/>
<path d="M168.244 69.8335L169.156 72.7292L176.573 70.3926L176.825 71.1938L169.409 73.5304L170.321 76.4261L169.611 76.6496L167.534 70.057L168.244 69.8335Z" fill="black"/>
<path d="M164.304 46.5899L158.62 50.5655L164.803 50.0043L165.105 50.4369L162.465 56.0622L168.149 52.0866L168.63 52.7749L161.649 57.6584L161.153 56.9505L164.027 50.8839L157.329 51.4833L156.841 50.7851L163.822 45.9016L164.304 46.5899Z" fill="black"/>
<path d="M154.047 36.5252L154.566 35.9922L158.667 39.9854L152.723 46.0896L148.699 42.1717L149.218 41.6386L152.64 44.9705L154.783 42.7696L151.8 39.8646L152.294 39.3574L155.277 42.2624L157.546 39.9325L154.047 36.5252Z" fill="black"/>
<path d="M32.2848 37.5651C32.65 37.9353 32.9441 38.3587 33.1672 38.8355C33.3901 39.3235 33.5224 39.8335 33.564 40.3655C33.6113 40.9033 33.5398 41.4345 33.3495 41.9594C33.1649 42.4899 32.8448 42.9798 32.3892 43.4293C31.8481 43.963 31.2632 44.2928 30.6344 44.4186C30.0056 44.5558 29.409 44.5206 28.8447 44.3131L29.028 43.5591C29.4231 43.6976 29.7961 43.7454 30.1471 43.7025C30.5038 43.6654 30.8297 43.5686 31.1249 43.4122C31.4145 43.2614 31.6703 43.0765 31.8924 42.8574C32.2569 42.4978 32.5057 42.1063 32.6386 41.683C32.7773 41.2653 32.8226 40.8385 32.7746 40.4026C32.7266 39.978 32.6021 39.567 32.4012 39.1697C32.2059 38.778 31.9565 38.4284 31.6531 38.1208C31.3217 37.7848 30.9473 37.5192 30.53 37.324C30.1127 37.1289 29.6836 37.0128 29.2426 36.9759C28.8072 36.9446 28.3826 36.9926 27.9688 37.1199C27.5549 37.2585 27.1856 37.488 26.861 37.8082C26.6332 38.0329 26.439 38.3031 26.2784 38.6188C26.1179 38.9345 26.0166 39.2761 25.9745 39.6435C25.9267 40.0165 25.9693 40.3958 26.1025 40.7814L25.3542 41.0139C25.1817 40.5885 25.1225 40.1412 25.1766 39.672C25.2307 39.2029 25.3667 38.754 25.5846 38.3256C25.7968 37.9028 26.0567 37.5397 26.3642 37.2363C26.78 36.8262 27.2486 36.538 27.7702 36.3719C28.2974 36.2114 28.8352 36.1528 29.3836 36.1962C29.932 36.2508 30.4571 36.3958 30.959 36.6312C31.4665 36.8722 31.9084 37.1835 32.2848 37.5651Z" fill="black"/>
<path d="M17.19 48.1152C17.5307 47.6213 17.9384 47.2416 18.413 46.9762C18.8877 46.7108 19.3929 46.5491 19.9286 46.4911C20.4709 46.4375 21.0073 46.4771 21.5378 46.6098C22.0748 46.7471 22.5672 46.9702 23.015 47.2791C23.4826 47.6016 23.8703 47.9906 24.1781 48.4459C24.4926 48.9058 24.7122 49.3975 24.8371 49.921C24.9639 50.4556 24.9843 50.9896 24.8981 51.523C24.8186 52.061 24.6175 52.5638 24.295 53.0313C23.9543 53.5252 23.5433 53.9025 23.062 54.1634C22.5808 54.4243 22.0713 54.5782 21.5335 54.6251C20.9912 54.6786 20.4548 54.639 19.9244 54.5063C19.3939 54.3736 18.9081 54.1551 18.4669 53.8507C17.9993 53.5282 17.6083 53.1369 17.2939 52.677C16.986 52.2217 16.7664 51.73 16.635 51.202C16.5101 50.6785 16.4908 50.15 16.5769 49.6166C16.6631 49.0832 16.8674 48.5827 17.19 48.1152ZM22.538 47.9705C22.1561 47.707 21.7442 47.5152 21.3023 47.395C20.867 47.2793 20.4315 47.2413 19.9959 47.281C19.567 47.3252 19.1611 47.4486 18.7784 47.6511C18.3978 47.8647 18.0757 48.1625 17.8123 48.5445C17.5351 48.9461 17.3699 49.3618 17.3164 49.7915C17.2651 50.2323 17.3004 50.66 17.4225 51.0747C17.5467 51.5005 17.7424 51.8931 18.0096 52.2524C18.2769 52.6117 18.5916 52.9162 18.9537 53.1661C19.3357 53.4296 19.7443 53.6191 20.1796 53.7348C20.6149 53.8505 21.0527 53.8851 21.4928 53.8389C21.9283 53.7992 22.3342 53.6758 22.7103 53.4688C23.0864 53.2617 23.4062 52.9672 23.6696 52.5853C23.9422 52.1902 24.1075 51.7745 24.1655 51.3383C24.2189 50.9086 24.1835 50.4809 24.0594 50.0551C23.9372 49.6404 23.7448 49.2501 23.4822 48.8842C23.2149 48.5249 22.9002 48.2204 22.538 47.9705Z" fill="black"/>
<path d="M17.2036 61.7974L10.8069 59.0241L11.1411 58.2534L18.958 61.6425L18.6812 62.281L9.93901 64.5858L16.4458 67.4068L16.1117 68.1775L8.30572 64.7932L8.61599 64.0776L17.2036 61.7974Z" fill="black"/>
<path d="M12.0091 80.1348L12.6931 77.1769L5.1171 75.4248L5.30637 74.6064L12.8824 76.3585L13.5665 73.4006L14.2913 73.5682L12.7339 80.3025L12.0091 80.1348Z" fill="black"/>
<path d="M11.7793 88.5579L11.7425 89.2649L3.05021 92.3578L3.09632 91.471L5.81405 90.5068L6.01282 86.6839L3.40912 85.4551L3.45585 84.5563L11.7793 88.5579ZM6.48313 90.3493L10.7786 88.8543L6.66258 86.898L6.48313 90.3493Z" fill="black"/>
<path d="M7.54882 98.5724C8.06445 98.505 8.57956 98.5265 9.09418 98.6368C9.61776 98.754 10.1041 98.9567 10.5532 99.245C11.0103 99.5322 11.3904 99.9101 11.6937 100.379C12.0049 100.846 12.2019 101.398 12.2848 102.032C12.3832 102.786 12.2926 103.451 12.013 104.028C11.7423 104.612 11.3539 105.066 10.8476 105.391L10.3576 104.789C10.7066 104.558 10.97 104.289 11.1479 103.984C11.3338 103.677 11.4536 103.359 11.5074 103.029C11.5621 102.707 11.5693 102.392 11.5289 102.083C11.4626 101.575 11.301 101.14 11.0439 100.778C10.7949 100.416 10.4822 100.122 10.1058 99.8964C9.73846 99.6781 9.33576 99.529 8.89772 99.4491C8.46761 99.3681 8.03838 99.3556 7.61001 99.4115C7.14199 99.4727 6.70415 99.6105 6.29651 99.8251C5.88887 100.04 5.53712 100.312 5.24124 100.641C4.9533 100.969 4.73504 101.336 4.58645 101.743C4.44684 102.156 4.40656 102.589 4.46561 103.041C4.50705 103.359 4.60506 103.677 4.75963 103.995C4.9142 104.314 5.12516 104.601 5.3925 104.857C5.66088 105.12 5.98892 105.315 6.37661 105.442L6.10978 106.179C5.66656 106.059 5.27436 105.836 4.9332 105.51C4.59203 105.183 4.31656 104.803 4.10679 104.371C3.89805 103.946 3.76571 103.52 3.70976 103.092C3.63413 102.513 3.68767 101.965 3.87038 101.449C4.06103 100.932 4.33929 100.468 4.70516 100.057C5.08001 99.6532 5.51281 99.3224 6.00356 99.0647C6.50225 98.8059 7.01734 98.6418 7.54882 98.5724Z" fill="black"/>
<path d="M15.0908 117.1L14.1785 114.204L6.76187 116.541L6.50947 115.74L13.9261 113.403L13.0139 110.507L13.7235 110.284L15.8004 116.876L15.0908 117.1Z" fill="black"/>
<path d="M19.0312 140.344L24.7148 136.368L18.532 136.929L18.2293 136.496L20.8698 130.871L15.1863 134.847L14.7048 134.158L21.6863 129.275L22.1815 129.983L19.3079 136.05L26.0058 135.45L26.4942 136.148L19.5127 141.032L19.0312 140.344Z" fill="black"/>
<path d="M29.2882 150.408L28.7691 150.941L24.6682 146.948L30.6121 140.844L34.6356 144.762L34.1166 145.295L30.6948 141.963L28.5517 144.164L31.535 147.069L31.0411 147.576L28.0578 144.671L25.789 147.001L29.2882 150.408Z" fill="black"/>
<path d="M148.368 32.2848C147.998 32.65 147.575 32.9441 147.098 33.1671C146.61 33.3901 146.1 33.5224 145.568 33.564C145.03 33.6113 144.499 33.5398 143.974 33.3495C143.444 33.1649 142.954 32.8447 142.504 32.3891C141.97 31.8481 141.641 31.2632 141.515 30.6344C141.378 30.0055 141.413 29.4089 141.62 28.8447L142.374 29.028C142.236 29.423 142.188 29.7961 142.231 30.1471C142.268 30.5037 142.365 30.8297 142.521 31.1249C142.672 31.4144 142.857 31.6703 143.076 31.8924C143.436 32.2569 143.827 32.5056 144.25 32.6386C144.668 32.7772 145.095 32.8225 145.531 32.7746C145.955 32.7266 146.366 32.6021 146.764 32.4011C147.155 32.2058 147.505 31.9565 147.813 31.6531C148.149 31.3216 148.414 30.9472 148.609 30.5299C148.804 30.1127 148.921 29.6835 148.958 29.2425C148.989 28.8071 148.941 28.3825 148.813 27.9687C148.675 27.5548 148.445 27.1855 148.125 26.8609C147.9 26.6331 147.63 26.4389 147.315 26.2784C146.999 26.1178 146.657 26.0165 146.29 25.9744C145.917 25.9266 145.538 25.9693 145.152 26.1024L144.919 25.3541C145.345 25.1817 145.792 25.1225 146.261 25.1766C146.731 25.2307 147.179 25.3667 147.608 25.5846C148.031 25.7968 148.394 26.0566 148.697 26.3642C149.107 26.7799 149.395 27.2486 149.562 27.7702C149.722 28.2974 149.781 28.8352 149.737 29.3836C149.683 29.932 149.538 30.4571 149.302 30.9589C149.061 31.4664 148.75 31.9084 148.368 32.2848Z" fill="black"/>
<path d="M137.818 17.1899C138.312 17.5306 138.692 17.9383 138.957 18.413C139.223 18.8876 139.384 19.3928 139.442 19.9286C139.496 20.4709 139.456 21.0073 139.324 21.5377C139.186 22.0748 138.963 22.5672 138.654 23.015C138.332 23.4825 137.943 23.8702 137.487 24.1781C137.028 24.4926 136.536 24.7122 136.012 24.837C135.478 24.9639 134.944 24.9842 134.41 24.8981C133.872 24.8185 133.37 24.6175 132.902 24.2949C132.408 23.9542 132.031 23.5433 131.77 23.062C131.509 22.5808 131.355 22.0712 131.308 21.5335C131.255 20.9912 131.294 20.4548 131.427 19.9243C131.56 19.3939 131.778 18.908 132.083 18.4668C132.405 17.9993 132.796 17.6083 133.256 17.2938C133.712 16.986 134.203 16.7663 134.731 16.6349C135.255 16.5101 135.783 16.4907 136.317 16.5769C136.85 16.663 137.351 16.8674 137.818 17.1899ZM137.963 22.538C138.226 22.1561 138.418 21.7441 138.538 21.3022C138.654 20.8669 138.692 20.4315 138.652 19.9959C138.608 19.5669 138.485 19.1611 138.282 18.7784C138.069 18.3978 137.771 18.0757 137.389 17.8122C136.987 17.5351 136.572 17.3698 136.142 17.3164C135.701 17.265 135.273 17.3004 134.859 17.4225C134.433 17.5466 134.04 17.7423 133.681 18.0096C133.322 18.2768 133.017 18.5915 132.767 18.9537C132.504 19.3356 132.314 19.7443 132.199 20.1796C132.083 20.6149 132.048 21.0526 132.094 21.4927C132.134 21.9283 132.258 22.3341 132.465 22.7102C132.672 23.0863 132.966 23.4061 133.348 23.6696C133.743 23.9422 134.159 24.1074 134.595 24.1654C135.025 24.2188 135.452 24.1835 135.878 24.0593C136.293 23.9372 136.683 23.7448 137.049 23.4821C137.408 23.2149 137.713 22.9002 137.963 22.538Z" fill="black"/>
<path d="M124.136 17.2036L126.909 10.8069L127.68 11.141L124.291 18.958L123.652 18.6811L121.348 9.93897L118.527 16.4458L117.756 16.1116L121.14 8.30568L121.856 8.61594L124.136 17.2036Z" fill="black"/>
<path d="M105.799 12.009L108.756 12.6931L110.509 5.11702L111.327 5.30629L109.575 12.8823L112.533 13.5664L112.365 14.2913L105.631 12.7339L105.799 12.009Z" fill="black"/>
<path d="M97.3755 11.7792L96.6684 11.7425L93.5756 3.05017L94.4624 3.09628L95.4266 5.81401L99.2494 6.01277L100.478 3.40907L101.377 3.4558L97.3755 11.7792ZM95.5841 6.48309L97.079 10.7785L99.0354 6.66254L95.5841 6.48309Z" fill="black"/>
<path d="M87.361 7.54878C87.4283 8.0644 87.4069 8.57952 87.2966 9.09413C87.1794 9.61772 86.9767 10.1041 86.6884 10.5532C86.4012 11.0102 86.0232 11.3904 85.5545 11.6936C85.0869 12.0048 84.5358 12.2018 83.9012 12.2847C83.1476 12.3831 82.4822 12.2926 81.9052 12.0129C81.3212 11.7423 80.8671 11.3538 80.5428 10.8476L81.1444 10.3575C81.3755 10.7065 81.6439 10.97 81.9495 11.1479C82.2562 11.3338 82.5744 11.4536 82.9041 11.5073C83.2259 11.5621 83.5415 11.5693 83.8509 11.5289C84.3586 11.4626 84.7933 11.3009 85.155 11.0439C85.5178 10.7948 85.8118 10.4821 86.037 10.1058C86.2552 9.73842 86.4043 9.33572 86.4843 8.89767C86.5653 8.46757 86.5778 8.03833 86.5218 7.60997C86.4607 7.14194 86.3228 6.70411 86.1082 6.29647C85.8936 5.88883 85.6218 5.53707 85.2927 5.2412C84.9647 4.95326 84.5973 4.73499 84.1906 4.58641C83.7771 4.44679 83.3442 4.40651 82.8921 4.46556C82.5747 4.50701 82.2568 4.60501 81.9381 4.75958C81.6194 4.91415 81.3323 5.12511 81.0768 5.39245C80.8133 5.66083 80.6182 5.98887 80.4913 6.37656L79.7546 6.10973C79.8742 5.66651 80.0973 5.27432 80.4238 4.93315C80.7504 4.59199 81.1299 4.31652 81.5624 4.10674C81.9869 3.898 82.4134 3.76566 82.8417 3.70971C83.4208 3.63408 83.9684 3.68762 84.4844 3.87034C85.0014 4.06098 85.4654 4.33924 85.8762 4.70512C86.2802 5.07996 86.611 5.51276 86.8687 6.00352C87.1275 6.50221 87.2916 7.01729 87.361 7.54878Z" fill="black"/>
<path d="M68.8335 15.0908L71.7292 14.1785L69.3926 6.76188L70.1938 6.50948L72.5303 13.9261L75.426 13.0139L75.6496 13.7235L69.057 15.8004L68.8335 15.0908Z" fill="black"/>
<path d="M45.5899 19.0312L49.5655 24.7147L49.0043 18.5319L49.4369 18.2293L55.0622 20.8697L51.0866 15.1862L51.7749 14.7047L56.6584 21.6862L55.9504 22.1815L49.8839 19.3079L50.4832 26.0058L49.7851 26.4941L44.9015 19.5126L45.5899 19.0312Z" fill="black"/>
<path d="M35.5252 29.2882L34.9921 28.7692L38.9854 24.6682L45.0896 30.6121L41.1716 34.6357L40.6386 34.1166L43.9705 30.6948L41.7696 28.5517L38.8646 31.535L38.3574 31.0411L41.2623 28.0578L38.9324 25.7891L35.5252 29.2882Z" fill="black"/>
</svg>
